<svg width="357" height="98" viewBox="0 0 357 98" fill="none" xmlns="http://www.w3.org/2000/svg">
<rect width="357" height="98" fill="white"/>
<path d="M22.0401 71.3932V22.4505H54.5591V30.3339H30.9746V42.8816H53.2452V50.765H30.9746V63.5098H54.5591V71.3932H22.0401ZM60.388 71.3932V35.6552H68.4685V42.6845L67.8115 41.4363C68.6437 39.2903 70.0013 37.6698 71.8846 36.5749C73.8117 35.4362 76.0453 34.8668 78.5855 34.8668C81.2133 34.8668 83.5345 35.4362 85.5491 36.5749C87.6076 37.7136 89.2062 39.3122 90.3449 41.3706C91.4836 43.3853 92.0529 45.7284 92.0529 48.4V71.3932H83.4469V50.4365C83.4469 48.8598 83.1403 47.5021 82.5272 46.3634C81.914 45.2247 81.06 44.3488 79.9651 43.7356C78.914 43.0787 77.6658 42.7502 76.2205 42.7502C74.819 42.7502 73.5708 43.0787 72.4759 43.7356C71.3809 44.3488 70.5269 45.2247 69.9138 46.3634C69.3006 47.5021 68.994 48.8598 68.994 50.4365V71.3932H60.388ZM115.623 71.7874C111.593 71.7874 108.462 70.6924 106.228 68.5026C104.038 66.269 102.943 63.1375 102.943 59.1082V43.3415H96.7681V35.6552H97.425C99.1769 35.6552 100.535 35.1953 101.498 34.2756C102.462 33.3558 102.943 32.02 102.943 30.2682V27.509H111.549V35.6552H119.761V43.3415H111.549V58.6484C111.549 59.8309 111.747 60.8382 112.141 61.6703C112.579 62.5025 113.236 63.1375 114.112 63.5755C115.031 64.0135 116.192 64.2324 117.593 64.2324C117.9 64.2324 118.25 64.2105 118.644 64.1667C119.082 64.123 119.499 64.0792 119.893 64.0354V71.3932C119.28 71.4808 118.579 71.5684 117.79 71.656C117.002 71.7436 116.279 71.7874 115.623 71.7874ZM126.468 71.3932V35.6552H135.074V71.3932H126.468ZM126.468 31.6478V22.4505H135.074V31.6478H126.468ZM159.312 71.7874C155.283 71.7874 152.151 70.6924 149.918 68.5026C147.728 66.269 146.633 63.1375 146.633 59.1082V43.3415H140.458V35.6552H141.115C142.867 35.6552 144.224 35.1953 145.188 34.2756C146.151 33.3558 146.633 32.02 146.633 30.2682V27.509H155.239V35.6552H163.451V43.3415H155.239V58.6484C155.239 59.8309 155.436 60.8382 155.83 61.6703C156.268 62.5025 156.925 63.1375 157.801 63.5755C158.721 64.0135 159.882 64.2324 161.283 64.2324C161.59 64.2324 161.94 64.2105 162.334 64.1667C162.772 64.123 163.188 64.0792 163.582 64.0354V71.3932C162.969 71.4808 162.268 71.5684 161.48 71.656C160.692 71.7436 159.969 71.7874 159.312 71.7874ZM174.493 85.9118C173.53 85.9118 172.588 85.8242 171.669 85.649C170.749 85.5176 169.917 85.2767 169.172 84.9263V77.6999C169.741 77.8313 170.42 77.9627 171.209 78.0941C172.041 78.2255 172.807 78.2912 173.508 78.2912C175.479 78.2912 176.902 77.8313 177.778 76.9116C178.698 75.9918 179.508 74.7874 180.209 73.2983L182.574 67.78L182.442 75.0064L166.873 35.6552H176.136L187.041 64.6923H183.756L194.596 35.6552H203.925L188.355 75.0064C187.435 77.3276 186.318 79.2985 185.005 80.919C183.691 82.5394 182.158 83.7657 180.406 84.5979C178.698 85.4738 176.727 85.9118 174.493 85.9118Z" fill="#00BF4D"/>
<path d="M205.366 71.3932L222.249 22.4505H233.812L250.695 71.3932H240.973L237.491 60.882H218.571L215.023 71.3932H205.366ZM221.133 52.9986H234.929L226.782 28.6258H229.279L221.133 52.9986ZM255.42 84.5322V35.6552H263.5V42.7502L262.712 40.9764C263.938 39.0494 265.602 37.5603 267.705 36.5092C269.807 35.4143 272.238 34.8668 274.997 34.8668C278.369 34.8668 281.413 35.6989 284.128 37.3632C286.844 39.0275 288.99 41.2611 290.567 44.0641C292.187 46.8671 292.997 50.0204 292.997 53.5242C292.997 56.9841 292.209 60.1375 290.632 62.9842C289.056 65.831 286.91 68.0865 284.194 69.7508C281.479 71.3713 278.391 72.1815 274.931 72.1815C272.347 72.1815 269.96 71.6779 267.77 70.6705C265.624 69.6194 263.916 68.1303 262.646 66.2033L264.026 64.4952V84.5322H255.42ZM273.946 64.2981C275.917 64.2981 277.668 63.8383 279.201 62.9185C280.734 61.9988 281.917 60.7287 282.749 59.1082C283.625 57.4878 284.063 55.6264 284.063 53.5242C284.063 51.4219 283.625 49.5825 282.749 48.0058C281.917 46.3853 280.734 45.1152 279.201 44.1955C277.668 43.232 275.917 42.7502 273.946 42.7502C272.062 42.7502 270.354 43.2101 268.822 44.1298C267.332 45.0495 266.15 46.3415 265.274 48.0058C264.442 49.6263 264.026 51.4657 264.026 53.5242C264.026 55.6264 264.442 57.4878 265.274 59.1082C266.15 60.7287 267.332 61.9988 268.822 62.9185C270.354 63.8383 272.062 64.2981 273.946 64.2981ZM299.559 84.5322V35.6552H307.639V42.7502L306.851 40.9764C308.077 39.0494 309.741 37.5603 311.843 36.5092C313.946 35.4143 316.376 34.8668 319.136 34.8668C322.508 34.8668 325.552 35.6989 328.267 37.3632C330.983 39.0275 333.129 41.2611 334.705 44.0641C336.326 46.8671 337.136 50.0204 337.136 53.5242C337.136 56.9841 336.348 60.1375 334.771 62.9842C333.194 65.831 331.048 68.0865 328.333 69.7508C325.618 71.3713 322.53 72.1815 319.07 72.1815C316.486 72.1815 314.099 71.6779 311.909 70.6705C309.763 69.6194 308.055 68.1303 306.785 66.2033L308.165 64.4952V84.5322H299.559ZM318.085 64.2981C320.055 64.2981 321.807 63.8383 323.34 62.9185C324.873 61.9988 326.055 60.7287 326.888 59.1082C327.764 57.4878 328.202 55.6264 328.202 53.5242C328.202 51.4219 327.764 49.5825 326.888 48.0058C326.055 46.3853 324.873 45.1152 323.34 44.1955C321.807 43.232 320.055 42.7502 318.085 42.7502C316.201 42.7502 314.493 43.2101 312.96 44.1298C311.471 45.0495 310.289 46.3415 309.413 48.0058C308.581 49.6263 308.165 51.4657 308.165 53.5242C308.165 55.6264 308.581 57.4878 309.413 59.1082C310.289 60.7287 311.471 61.9988 312.96 62.9185C314.493 63.8383 316.201 64.2981 318.085 64.2981Z" fill="#FF8125"/>
</svg>
